Coordinates
version=1
nRows=20
nColumns=38
inDegrees=no

Units are S.I. units (second, meters, Newtons, ...)
If the header above contains a line with 'inDegrees', this indicates whether rotational values are in degrees (yes) or radians (no).

endheader
time	pelvis_tilt	pelvis_list	pelvis_rotation	pelvis_tx	pelvis_ty	pelvis_tz	hip_flexion_r	hip_adduction_r	hip_rotation_r	knee_angle_r	ankle_angle_r	subtalar_angle_r	mtp_angle_r	hip_flexion_l	hip_adduction_l	hip_rotation_l	knee_angle_l	ankle_angle_l	subtalar_angle_l	mtp_angle_l	lumbar_extension	lumbar_bending	lumbar_rotation	arm_flex_r	arm_add_r	arm_rot_r	elbow_flex_r	pro_sup_r	wrist_flex_r	wrist_dev_r	arm_flex_l	arm_add_l	arm_rot_l	elbow_flex_l	pro_sup_l	wrist_flex_l	wrist_dev_l
1.24	0.3741	1.41267	-2.0791	0.987976	0.0312393	0.96146	0.286024	-0.177725	-0.00986275	1.34451	-0.164626	0	0	-0.00129063	0.117564	-0.266838	0.281484	0.0852163	0	0	-0.228954	-0.112594	-0.0846383	-0.25995	-0.0500913	-0.586314	0.378729	1.1623	0	0	-0.176155	-0.412017	0.652744	0.661624	0.508119	0	0
1.25	0.351867	1.41338	-2.0439	0.98922	0.0232045	0.962571	0.299539	-0.173551	-0.0167922	1.33239	-0.157678	0	0	-0.0196771	0.116687	-0.256847	0.267559	0.0865472	0	0	-0.232628	-0.106614	-0.0963074	-0.260768	-0.0488882	-0.590427	0.381645	1.16088	0	0	-0.169203	-0.414744	0.647715	0.665551	0.513683	0	0
1.26	0.330544	1.41392	-2.01005	0.990409	0.0152179	0.963503	0.311866	-0.169908	-0.0235323	1.31645	-0.149696	0	0	-0.0380269	0.115689	-0.246509	0.253473	0.0876633	0	0	-0.236219	-0.100807	-0.10798	-0.261538	-0.0477169	-0.590587	0.385686	1.16117	0	0	-0.163332	-0.417479	0.640245	0.670747	0.520697	0	0
1.27	0.309627	1.41441	-1.97704	0.991498	0.00731532	0.96428	0.323404	-0.166464	-0.0298721	1.29728	-0.140621	0	0	-0.0557805	0.114284	-0.23562	0.240157	0.0891886	0	0	-0.239673	-0.0950855	-0.119638	-0.261429	-0.0464776	-0.58831	0.390538	1.15967	0	0	-0.157195	-0.420065	0.633886	0.674724	0.527643	0	0
1.28	0.290242	1.41472	-1.94586	0.992512	-0.000542441	0.964932	0.333842	-0.163403	-0.0356573	1.27494	-0.131051	0	0	-0.0728864	0.112716	-0.224361	0.227816	0.0913133	0	0	-0.243071	-0.089756	-0.131282	-0.260133	-0.0449458	-0.586452	0.39498	1.15942	0	0	-0.150366	-0.422709	0.629852	0.677581	0.533464	0	0
1.29	0.274453	1.41496	-1.91891	0.993444	-0.00833613	0.965445	0.343338	-0.160759	-0.040564	1.24937	-0.121081	0	0	-0.0893188	0.11148	-0.212734	0.21584	0.0934179	0	0	-0.246179	-0.0851241	-0.142481	-0.25749	-0.0430936	-0.585898	0.398751	1.15968	0	0	-0.142953	-0.424991	0.626319	0.67937	0.538949	0	0
1.3	0.262247	1.41528	-1.89652	0.994259	-0.0160581	0.965789	0.352108	-0.158375	-0.0446289	1.22085	-0.110652	0	0	-0.105084	0.110689	-0.201314	0.203892	0.0950351	0	0	-0.248723	-0.0813438	-0.152905	-0.253646	-0.0412765	-0.584862	0.400807	1.16122	0	0	-0.13608	-0.427412	0.621779	0.68203	0.545417	0	0
1.31	0.253138	1.41556	-1.878	0.994977	-0.0237172	0.966011	0.359988	-0.156337	-0.048078	1.18979	-0.0997405	0	0	-0.12038	0.110161	-0.189862	0.192513	0.0961578	0	0	-0.250971	-0.0782682	-0.162306	-0.249283	-0.0393396	-0.583028	0.402745	1.16323	0	0	-0.127715	-0.430029	0.621641	0.682837	0.551381	0	0
1.32	0.245676	1.41565	-1.86193	0.995589	-0.0313675	0.966138	0.366569	-0.154599	-0.0511484	1.15609	-0.0880957	0	0	-0.135503	0.109718	-0.178553	0.181833	0.0972392	0	0	-0.253308	-0.0756397	-0.171129	-0.244714	-0.0376944	-0.577428	0.405993	1.16042	0	0	-0.118308	-0.432453	0.623871	0.682411	0.555358	0	0
1.33	0.238279	1.41575	-1.84675	0.996075	-0.0390166	0.966177	0.371489	-0.152594	-0.0537747	1.11919	-0.0772715	0	0	-0.150424	0.109049	-0.167652	0.171558	0.0984561	0	0	-0.255572	-0.0731086	-0.179111	-0.239571	-0.0362482	-0.570458	0.408962	1.15488	0	0	-0.108327	-0.434042	0.626222	0.680443	0.559963	0	0
1.34	0.231583	1.41576	-1.8332	0.996418	-0.0466386	0.966101	0.375167	-0.150498	-0.0562184	1.07993	-0.0675733	0	0	-0.165086	0.108331	-0.157666	0.161748	0.0997878	0	0	-0.257895	-0.0709284	-0.185722	-0.233905	-0.0349349	-0.563634	0.410902	1.14853	0	0	-0.0992865	-0.435188	0.625616	0.679234	0.569682	0	0
1.35	0.226604	1.41593	-1.822	0.996686	-0.0542208	0.965891	0.377948	-0.148728	-0.0591421	1.03852	-0.0583551	0	0	-0.179049	0.107704	-0.148079	0.152519	0.10103	0	0	-0.259867	-0.069078	-0.191415	-0.227773	-0.0339944	-0.556973	0.411481	1.14277	0	0	-0.0906304	-0.434769	0.6213	0.676457	0.584921	0	0
1.36	0.222627	1.41639	-1.81243	0.996901	-0.0618088	0.96555	0.379973	-0.147452	-0.0630858	0.995268	-0.050345	0	0	-0.192194	0.107125	-0.138884	0.144026	0.102223	0	0	-0.261429	-0.0672008	-0.195966	-0.221493	-0.0333398	-0.551348	0.411436	1.13616	0	0	-0.0810585	-0.433359	0.615464	0.672343	0.600644	0	0
1.37	0.216882	1.41717	-1.80141	0.997062	-0.0694608	0.965113	0.380898	-0.146038	-0.0682944	0.949988	-0.0437851	0	0	-0.204888	0.106052	-0.129546	0.135927	0.103262	0	0	-0.262589	-0.0648822	-0.199639	-0.215707	-0.0329891	-0.54612	0.411768	1.12944	0	0	-0.0690672	-0.433938	0.621375	0.668121	0.60695	0	0
1.38	0.208534	1.41822	-1.78863	0.997098	-0.0771807	0.964581	0.380927	-0.14408	-0.0743538	0.902907	-0.0383776	0	0	-0.217301	0.104496	-0.12063	0.128075	0.104223	0	0	-0.263378	-0.0622148	-0.202215	-0.21077	-0.0331016	-0.539166	0.413277	1.12229	0	0	-0.057133	-0.434514	0.629741	0.663627	0.609074	0	0
1.39	0.199474	1.41938	-1.77563	0.997023	-0.0849411	0.963921	0.380122	-0.1421	-0.0818617	0.854532	-0.0335393	0	0	-0.229165	0.102681	-0.113003	0.121029	0.105699	0	0	-0.263983	-0.0594409	-0.20366	-0.206646	-0.0333669	-0.531908	0.415586	1.11318	0	0	-0.0457584	-0.433822	0.634355	0.658979	0.61254	0	0
1.4	0.191898	1.42085	-1.7643	0.99687	-0.0927706	0.963108	0.378867	-0.140861	-0.0918363	0.805393	-0.0291448	0	0	-0.239997	0.10081	-0.106796	0.115269	0.107827	0	0	-0.264171	-0.0569564	-0.205132	-0.202753	-0.0339209	-0.523618	0.417736	1.10251	0	0	-0.0350717	-0.432666	0.634681	0.656083	0.61792	0	0
1.41	0.183906	1.42244	-1.75289	0.996639	-0.100716	0.962185	0.37702	-0.139901	-0.104471	0.756009	-0.0256959	0	0	-0.250369	0.0987018	-0.101515	0.110443	0.110698	0	0	-0.264164	-0.0544005	-0.20627	-0.199277	-0.0345614	-0.515983	0.420027	1.09212	0	0	-0.0252967	-0.431091	0.633011	0.653638	0.623778	0	0
1.42	0.174668	1.42419	-1.7408	0.996293	-0.108745	0.961164	0.375012	-0.13865	-0.118373	0.707039	-0.023287	0	0	-0.260142	0.0962849	-0.0972092	0.106783	0.114454	0	0	-0.263944	-0.0517536	-0.206266	-0.196509	-0.0351479	-0.509156	0.422845	1.08255	0	0	-0.0154491	-0.429448	0.632913	0.651074	0.627876	0	0
1.43	0.165148	1.42651	-1.72905	0.995794	-0.116926	0.960013	0.373352	-0.137054	-0.133362	0.658974	-0.0205911	0	0	-0.268726	0.0936147	-0.0943324	0.104699	0.119148	0	0	-0.262858	-0.049221	-0.205432	-0.194294	-0.0351786	-0.505976	0.425846	1.07799	0	0	-0.00569604	-0.428274	0.636261	0.648692	0.62843	0	0
